<svg xmlns="http://www.w3.org/2000/svg" xmlns:xlink="http://www.w3.org/1999/xlink" xmlns:inkscape="http://www.inkscape.org/namespaces/inkscape" version="1.1" width="65.36" height="25.35" viewBox="0 0 65.36 25.35">
<defs>
<path id="font_1_6" d="M.1769867 .69433596 .032989503 .68333438V.6523285C.102996829 .6523285 .11099243 .6453247 .11099243 .5962982V.07601929C.11099243 .0309906 .099990848 .0309906 .032989503 .0309906V0C.06599426 .0009918213 .11898804 .0029907227 .14399719 .0029907227 .16899109 .0029907227 .21798706 .0009918213 .25498963 0V.0309906C.18798828 .0309906 .1769867 .0309906 .1769867 .07601929V.69433596Z"/>
<path id="font_1_5" d="M.1769867 .4423828 .036987306 .43138124V.40037538C.101989749 .40037538 .11099243 .3943634 .11099243 .34532167V.076034549C.11099243 .0309906 .099990848 .0309906 .032989503 .0309906V0C.06498718 .0009918213 .11898804 .0029907227 .14299011 .0029907227 .17799378 .0029907227 .21299744 .0009918213 .24699402 0V.0309906C.18099976 .0309906 .1769867 .035995485 .1769867 .075042728V.4423828M.18099976 .6159363C.18099976 .64793398 .1559906 .6689453 .12799073 .6689453 .09700012 .6689453 .07499695 .64193728 .07499695 .6159363 .07499695 .5889435 .09700012 .5629425 .12799073 .5629425 .1559906 .5629425 .18099976 .5839386 .18099976 .6159363Z"/>
<path id="font_1_7" d="M.10998535 .34429933V.076034549C.10998535 .0309906 .09899902 .0309906 .03199768 .0309906V0C.066986087 .0009918213 .117996219 .0029907227 .14498902 .0029907227 .17098999 .0029907227 .22299195 .0009918213 .25698854 0V.0309906C.18998719 .0309906 .1789856 .0309906 .1789856 .076034549V.2602234C.1789856 .36431886 .25 .42037965 .31399537 .42037965 .3769989 .42037965 .3880005 .36631776 .3880005 .30926515V.076034549C.3880005 .0309906 .3769989 .0309906 .30999757 .0309906V0C.34498597 .0009918213 .3959961 .0029907227 .4229889 .0029907227 .44898988 .0029907227 .5009918 .0009918213 .5349884 0V.0309906C.46798707 .0309906 .45700074 .0309906 .45700074 .076034549V.2602234C.45700074 .36431886 .5279999 .42037965 .59199526 .42037965 .6549988 .42037965 .66600039 .36631776 .66600039 .30926515V.076034549C.66600039 .0309906 .6549988 .0309906 .58799746 .0309906V0C.6230011 .0009918213 .673996 .0029907227 .70098879 .0029907227 .72698977 .0029907227 .7789917 .0009918213 .8129883 0V.0309906C.7609863 .0309906 .73599246 .0309906 .7350006 .061019899V.25221253C.7350006 .3383026 .7350006 .36932374 .70399478 .405365 .6899872 .42237855 .6569977 .4423828 .598999 .4423828 .5149994 .4423828 .47099305 .38233949 .45399476 .34429933 .43998719 .43138124 .3659973 .4423828 .32099916 .4423828 .24798584 .4423828 .20098877 .39935304 .17298889 .33729554V.4423828L.03199768 .43138124V.40037538C.101989749 .4003601 .10998535 .39335633 .10998535 .34429933Z"/>
<path id="font_2_1" d="M.24899292 .10601807C.23899842 .072021488 .20599365 .018234253 .15499878 .018234253 .1519928 .018234253 .12199402 .018234253 .100997928 .03215027 .14199829 .04508972 .14498902 .08100891 .14498902 .087020877 .14498902 .10900879 .12799073 .12402344 .10499573 .12402344 .07699585 .12402344 .04798889 .10002136 .04798889 .0630188 .04798889 .01322937 .10398865-.009765625 .15299988-.009765625 .19898987-.009765625 .23999024 .019226075 .2649994 .061019899 .2889862 .008224487 .34399415-.009765625 .38398744-.009765625 .49899293-.009765625 .55999758 .11502075 .55999758 .14305115 .55999758 .15608216 .5469971 .15608216 .5439911 .15608216 .5299988 .15608216 .5289917 .15107727 .5249939 .13905335 .5039978 .07002258 .44400025 .018234253 .3880005 .018234253 .34799195 .018234253 .32699586 .04508972 .32699586 .08302307 .32699586 .10900879 .35099793 .20018006 .3789978 .31140138 .39898683 .38841249 .44400025 .4133911 .47698976 .4133911 .47898866 .4133911 .5099945 .4133911 .5309906 .39941407 .49899293 .39041139 .4869995 .3624115 .4869995 .34440614 .4869995 .32240296 .5039978 .30740357 .5269928 .30740357 .5499878 .30740357 .58299258 .32640077 .58299258 .3684082 .58299258 .4243927 .5189972 .44140626 .47898866 .44140626 .42900086 .44140626 .3889923 .4084015 .36698915 .3704071 .34899903 .4113922 .30299378 .44140626 .24699402 .44140626 .1349945 .44140626 .070999149 .31840516 .070999149 .2883606 .070999149 .27534486 .084991458 .27534486 .08799744 .27534486 .100997928 .27534486 .101989749 .27934266 .10699463 .29237367 .13198853 .3704071 .19499207 .4133911 .24398804 .4133911 .2769928 .4133911 .3039856 .395401 .3039856 .3474121 .3039856 .32740785 .2919922 .27734376 .2829895 .24327088L.24899292 .10601807Z"/>
<path id="font_3_1" d="M.91999819 .2263794C.7939911 .13398743 .7769928 .0028076173 .7769928 .0018157959 .7769928-.013183594 .7869873-.013183594 .8009949-.013183594 .81900027-.013183594 .82199099-.013183594 .82699587 .0038146973 .83299258 .028808594 .848999 .092819217 .901001 .14805603 .95899966 .20930481 1.0089874 .2243805 1.0509949 .23738098 1.0569916 .23937989 1.0609894 .24537659 1.0609894 .25038148 1.0609894 .26037599 1.0549927 .26239015 1.0419922 .26638795 .897995 .3123169 .8470001 .41412355 .82598879 .502121 .82199099 .51412966 .8149872 .51412966 .8009949 .51412966 .7869873 .51412966 .7769928 .51412966 .7769928 .49913026 .7769928 .49713136 .7869873 .43013 .83599856 .3612213 .85899356 .32728578 .8869934 .29933167 .91999819 .27539063H.116989139C.100997928 .27539063 .07699585 .27539063 .07699585 .25138856 .07699585 .2263794 .099990848 .2263794 .116989139 .2263794H.91999819Z"/>
<path id="font_4_1" d="M.5159912 .31925965C.5159912 .42918397 .5029907 .50813296 .45700074 .5780945 .42599488 .62405398 .3639984 .6640625 .28399659 .6640625 .051986696 .6640625 .051986696 .39120484 .051986696 .31925965 .051986696 .2472992 .051986696-.01953125 .28399659-.01953125 .5159912-.01953125 .5159912 .2472992 .5159912 .31925965M.28399659 .008468628C.23799134 .008468628 .1769867 .035446168 .15699768 .117385867 .14299011 .17634583 .14299011 .25830079 .14299011 .33224488 .14299011 .40519715 .14299011 .4811554 .1579895 .53611758 .1789856 .6150665 .24299622 .63604739 .28399659 .63604739 .33799745 .63604739 .3899994 .6030731 .4079895 .545105 .42399598 .4911499 .4249878 .41918946 .4249878 .33224488 .4249878 .25830079 .4249878 .18434143 .4119873 .12138367 .3919983 .030441285 .32398988 .008468628 .28399659 .008468628Z"/>
<path id="font_1_9" d="M.20799256 .19424439C.22999573 .19024658 .31199647 .17424011 .31199647 .102249149 .31199647 .051254274 .2769928 .011245728 .19898987 .011245728 .114990238 .011245728 .07899475 .06825256 .05999756 .15324402 .056991579 .1662445 .055999757 .17024231 .04598999 .17024231 .032989503 .17024231 .032989503 .16323853 .032989503 .14524842V.013244629C.032989503-.003753662 .032989503-.0107421879 .04399109-.0107421879 .04899597-.0107421879 .049987794-.009750366 .068984989 .009246826 .070999149 .011245728 .070999149 .013244629 .08898926 .03224182 .1329956-.009750366 .17799378-.0107421879 .19898987-.0107421879 .31399537-.0107421879 .3600006 .056243898 .3600006 .12825012 .3600006 .1812439 .32998658 .21124268 .31799317 .22323609 .2849884 .25523377 .24598694 .26324464 .20399475 .27124024 .147995 .28224183 .08099365 .2952423 .08099365 .35324098 .08099365 .38822938 .10699463 .42922975 .19299317 .42922975 .30299378 .42922975 .30799867 .3392334 .30999757 .3082428 .31098939 .2992401 .31999208 .2992401 .32199098 .2992401 .33499146 .2992401 .33499146 .304245 .33499146 .3232422V.4242401C.33499146 .4412384 .33499146 .4482422 .32398988 .4482422 .31900025 .4482422 .31698609 .4482422 .3039856 .43623353 .30099488 .43223573 .29100038 .42323304 .2869873 .42022706 .24899292 .4482422 .20799256 .4482422 .19299317 .4482422 .070999149 .4482422 .032989503 .38124085 .032989503 .3252411 .032989503 .29023744 .04899597 .26223756 .07598877 .24023438 .10798645 .21424866 .13598633 .2082367 .20799256 .19424439Z"/>
<path id="font_1_8" d="M.10998535 .34429933V.076034549C.10998535 .0309906 .09899902 .0309906 .03199768 .0309906V0C.066986087 .0009918213 .117996219 .0029907227 .14498902 .0029907227 .17098999 .0029907227 .22299195 .0009918213 .25698854 0V.0309906C.18998719 .0309906 .1789856 .0309906 .1789856 .076034549V.2602234C.1789856 .36431886 .25 .42037965 .31399537 .42037965 .3769989 .42037965 .3880005 .36631776 .3880005 .30926515V.076034549C.3880005 .0309906 .3769989 .0309906 .30999757 .0309906V0C.34498597 .0009918213 .3959961 .0029907227 .4229889 .0029907227 .44898988 .0029907227 .5009918 .0009918213 .5349884 0V.0309906C.48298646 .0309906 .45799256 .0309906 .45700074 .061019899V.25221253C.45700074 .3383026 .45700074 .36932374 .42599488 .405365 .4119873 .42237855 .3789978 .4423828 .32099916 .4423828 .24798584 .4423828 .20098877 .39935304 .17298889 .33729554V.4423828L.03199768 .43138124V.40037538C.101989749 .4003601 .10998535 .39335633 .10998535 .34429933Z"/>
<path id="font_1_1" d="M.33099366-.2400055C.33099366-.23701477 .33099366-.23500061 .31399537-.21800232 .18899536-.0920105 .15699768 .09700012 .15699768 .25 .15699768 .42399598 .19499207 .59799197 .31799317 .72299197 .33099366 .73498538 .33099366 .7369995 .33099366 .73999026 .33099366 .746994 .32699586 .75 .32099916 .75 .31098939 .75 .22099304 .6819916 .1619873 .5549927 .11099243 .44499208 .09899902 .33399964 .09899902 .25 .09899902 .17199707 .10998535 .050994874 .16499329-.06201172 .22499085-.18501282 .31098939-.25 .32099916-.25 .32699586-.25 .33099366-.24700928 .33099366-.2400055Z"/>
<path id="font_5_1" d="M.33399964 .30233766C.33999635 .32835389 .36299134 .42037965 .43299867 .42037965 .43798829 .42037965 .46199037 .42037965 .48298646 .40734864 .45498658 .402359 .43499757 .37734986 .43499757 .35334779 .43499757 .33735658 .44599916 .31835938 .47299195 .31835938 .49499513 .31835938 .5269928 .3363495 .5269928 .37635804 .5269928 .42837525 .46798707 .4423828 .43399049 .4423828 .37599183 .4423828 .34098817 .38935853 .32899476 .36634828 .3039856 .43237306 .25 .4423828 .22099304 .4423828 .116989139 .4423828 .05999756 .3133545 .05999756 .28834535 .05999756 .27833558 .069992069 .27833558 .07199097 .27833558 .07998657 .27833558 .08299255 .28033448 .084991458 .28933717 .11898804 .39535523 .18499756 .42037965 .21899414 .42037965 .23799134 .42037965 .272995 .4113617 .272995 .35334779 .272995 .32235719 .2559967 .25532533 .21899414 .11528015 .20298767 .053268434 .16799927 .011245728 .12399292 .011245728 .117996219 .011245728 .09498596 .011245728 .07398987 .024276734 .09899902 .029266358 .12098694 .05027771 .12098694 .07827759 .12098694 .105270389 .09899902 .11328125 .083999637 .11328125 .053985597 .11328125 .0289917 .08728027 .0289917 .055267335 .0289917 .009246826 .07899475-.0107421879 .12298584-.0107421879 .18899536-.0107421879 .22499085 .059280397 .22799683 .0652771 .23999024 .028274537 .27598573-.0107421879 .33599855-.0107421879 .43899537-.0107421879 .49598695 .118270877 .49598695 .14328003 .49598695 .1532898 .4869995 .1532898 .48399354 .1532898 .47499085 .1532898 .47299195 .14929199 .47099305 .14228821 .43798829 .03527832 .36999513 .011245728 .33799745 .011245728 .29899598 .011245728 .2829895 .043273927 .2829895 .07727051 .2829895 .09927368 .2889862 .121276859 .2999878 .16529846L.33399964 .30233766Z"/>
<path id="font_1_2" d="M.2889862 .25C.2889862 .32798768 .27799989 .44898988 .22299195 .56199648 .16299439 .68499758 .07699585 .75 .066986087 .75 .06098938 .75 .056991579 .74598696 .056991579 .73999026 .056991579 .7369995 .056991579 .73498538 .07598877 .71699526 .17399597 .6179962 .23098755 .45899964 .23098755 .25 .23098755 .07899475 .19400025-.09700012 .069992069-.2230072 .056991579-.23500061 .056991579-.23701477 .056991579-.2400055 .056991579-.2460022 .06098938-.25 .066986087-.25 .07699585-.25 .16699219-.18200684 .22599793-.055007936 .2769928 .054992677 .2889862 .16600037 .2889862 .25Z"/>
<path id="font_1_3" d="M.68699648 .32714845C.70199587 .32714845 .72099307 .32714845 .72099307 .34713746 .72099307 .36714173 .70199587 .36714173 .6879883 .36714173H.08898926C.07499695 .36714173 .055999757 .36714173 .055999757 .34713746 .055999757 .32714845 .07499695 .32714845 .08999634 .32714845H.68699648M.6879883 .13284302C.70199587 .13284302 .72099307 .13284302 .72099307 .15284729 .72099307 .17285156 .70199587 .17285156 .68699648 .17285156H.08999634C.07499695 .17285156 .055999757 .17285156 .055999757 .15284729 .055999757 .13284302 .07499695 .13284302 .08898926 .13284302H.6879883Z"/>
<path id="font_1_4" d="M.23498535 .24902344C.23498535 .37512208 .33198548 .446167 .36698915 .47218324 .3939972 .49220277 .4149933 .52822878 .4149933 .57022097 .4149933 .62820437 .375 .7050781 .22599793 .7050781 .117996219 .7050781 .055999757 .6371765 .055999757 .57221987 .055999757 .53822329 .07899475 .52423098 .101989749 .52423098 .12998963 .52423098 .147995 .54422 .147995 .57022097 .147995 .6152344 .10598755 .6152344 .09199524 .6152344 .12298584 .6681061 .18099976 .68307498 .22299195 .68307498 .33198548 .68307498 .33198548 .6152344 .33198548 .5762329 .33198548 .5172272 .31599427 .49920655 .2979889 .48120118 .23199463 .40914918 .20999146 .31707765 .20999146 .25602723V.21099854C.20999146 .19299317 .20999146 .18699646 .22200012 .18699646 .23498535 .18699646 .23498535 .19599915 .23498535 .21400452V.24902344M.2749939 .052993776C.2749939 .08198547 .25099183 .10598755 .22200012 .10598755 .19299317 .10598755 .16899109 .08198547 .16899109 .052993776 .16899109 .023986817 .19299317 0 .22200012 0 .25099183 0 .2749939 .023986817 .2749939 .052993776Z"/>
</defs>
<use data-text="l" xlink:href="#font_1_6" transform="matrix(9.9626,0,0,-9.9626,3.290001,16.205998)"/>
<use data-text="i" xlink:href="#font_1_5" transform="matrix(9.9626,0,0,-9.9626,6.0496447,16.205998)"/>
<use data-text="m" xlink:href="#font_1_7" transform="matrix(9.9626,0,0,-9.9626,8.809284,16.205998)"/>
<use data-text="x" xlink:href="#font_2_1" transform="matrix(6.9738,0,0,-6.9738,1.9930039,22.360997)"/>
<use data-text="&#x2192;" xlink:href="#font_3_1" transform="matrix(6.9738,0,0,-6.9738,6.510002,22.360997)"/>
<use data-text="0" xlink:href="#font_4_1" transform="matrix(6.9738,0,0,-6.9738,14.453003,22.360997)"/>
<use data-text="s" xlink:href="#font_1_9" transform="matrix(9.9626,0,0,-9.9626,21.280003,9.465996)"/>
<use data-text="i" xlink:href="#font_1_5" transform="matrix(9.9626,0,0,-9.9626,25.205269,9.465996)"/>
<use data-text="n" xlink:href="#font_1_8" transform="matrix(9.9626,0,0,-9.9626,27.964909,9.465996)"/>
<use data-text="(" xlink:href="#font_1_1" transform="matrix(9.9626,0,0,-9.9626,33.494153,9.465996)"/>
<use data-text="x" xlink:href="#font_5_1" transform="matrix(9.9626,0,0,-9.9626,37.386,9.466995)"/>
<use data-text=")" xlink:href="#font_1_2" transform="matrix(9.9626,0,0,-9.9626,43.08,9.465996)"/>
<path transform="matrix(1,0,0,-1,72,72.002)" stroke-width=".3985" stroke-linecap="butt" stroke-miterlimit="10" stroke-linejoin="miter" fill="none" stroke="#000000" d="M-50.72 58.286H-25.045"/>
<use data-text="x" xlink:href="#font_5_1" transform="matrix(9.9626,0,0,-9.9626,31.27,23.039998)"/>
<use data-text="=" xlink:href="#font_1_3" transform="matrix(9.9626,0,0,-9.9626,50.917,16.205998)"/>
<use data-text="?" xlink:href="#font_1_4" transform="matrix(9.9626,0,0,-9.9626,58.65794,16.205998)"/>
</svg>
